# xmcd
#
# Track frame offsets: 
#        150
#        15603
#        30758
#
# Disc length: 607 seconds
#
# Revision: 3
# Processed by: cddbd v1.5.2PL0 Copyright (c) Steve Scherf et al.
# Submitted via: ExactAudioCopy v0.99pb4
#
DISCID=11025d03
DTITLE=Die Firma - Die Eine 2005 (EP)
DYEAR=2005
DGENRE=Hip-Hop
TTITLE0=Die Eine 2005 (Original)
TTITLE1=Rollt Mit Uns (Remix)
TTITLE2=Die Eine 2005 (Remix)
EXTD=YEAR: 1998
EXTT0=
EXTT1=
EXTT2=
PLAYORDER=
